<svg xmlns="http://www.w3.org/2000/svg">
    <defs>
        <symbol id="bg-rounded-corner" viewBox="0 0 1000 1000">
            <path d="M1083.5,1085.81864H.5v-1083c54.27649,148.17209,171.48669,408.57172,417,656C668.43677,911.71269,934.52515,1031.24626,1083.5,1085.81864Z"/>
        </symbol>
        <symbol id="bg-sharp-corner" viewBox="0 0 723 946">
            <polygon points="0.707 723.505 222.707 945.505 723.005 945.505 723.005 1.207 0.707 723.505"/>
        </symbol>
        <symbol id="bg-triangle-corner" viewbox="0 0 1000 1000">
            <polygon points="1000 586.159 1000 0 402.522 0 1000 586.159"/>
        </symbol>
        <symbol id="bg-square">
            <rect width="100%" height="100%"></rect>
        </symbol>
        <symbol id="bg-circle">
            <circle cx="50" cy="50" r="40" stroke-width=".5"/>
        </symbol>
        <symbol id="bg-slant" viewBox="0 0 1440 72.55212" preserveAspectRatio="none">
            <path d="M0,72.55212,1440,0V72.55212Z"/>
        </symbol>
        <symbol id="bg-wavey-lines" viewBox="0 0 1440 560" preserveAspectRatio="none">
            <g mask="url(&quot;#mask-1440x560&quot;)" fill="none">
                <path d="M -780.2825280344045,94 C -684.28,136.8 -492.28,304.6 -300.28252803440455,308 C -108.28,311.4 -12.28,107.8 179.71747196559545,111 C 371.72,114.2 467.72,318 659.7174719655955,324 C 851.72,330 983.66,121.2 1139.7174719655955,141 C 1295.77,160.8 1379.94,366.6 1440,423" stroke="var(--choco-theme-primary-opacity-10)" stroke-width="2"></path>
                <path d="M -911.6948983110108,56 C -815.69,122 -623.69,352.2 -431.6948983110108,386 C -239.69,419.8 -143.69,208.8 48.305101688989225,225 C 240.31,241.2 336.31,470.4 528.3051016889892,467 C 720.31,463.6 825.97,215.6 1008.3051016889892,208 C 1190.64,200.4 1353.66,384.8 1440,429" stroke="var(--choco-theme-primary-opacity-10)" stroke-width="2"></path>
                <path d="M -75.94173054377825,447 C 20.06,382 212.06,118.6 404.05826945622175,122 C 596.06,125.4 692.06,442.6 884.0582694562218,464 C 1076.06,485.4 1172.06,227.4 1364.0582694562218,229 C 1556.06,230.6 1828.87,491.2 1844.0582694562218,472 C 1859.25,452.8 1520.81,200.8 1440,133" stroke="var(--choco-theme-primary-opacity-10)" stroke-width="2"></path>
                <path d="M -410.1365486257903,443 C -314.14,400.8 -122.14,246.2 69.86345137420969,232 C 261.86,217.8 357.86,368.6 549.8634513742097,372 C 741.86,375.4 837.86,255 1029.8634513742097,249 C 1221.86,243 1427.84,349 1509.8634513742097,342 C 1591.89,335 1453.97,239.6 1440,214" stroke="var(--choco-theme-primary-opacity-10)" stroke-width="2"></path>
            </g>
        </symbol>
        <symbol id="bg-honey-comb" viewBox="0 0 1440 800" preserveAspectRatio="none">
            <g mask="url(&quot;#mask-1440x800&quot;)" fill="none">
                <path stroke="var(--choco-theme-primary-opacity-10)" stroke-width="1" d="M34.68 -21.56L77.98 3.44L77.98 53.44L34.68 78.44L-8.62 53.44L-8.62 3.44zM77.98 53.44L121.28 78.44L121.28 128.44L77.98 153.44L34.68 128.44L34.68 78.44zM77.98 203.44L121.28 228.44L121.28 278.44L77.98 303.44L34.68 278.44L34.68 228.44zM77.98 803.44L121.28 828.44L121.28 878.44L77.98 903.44L34.68 878.44L34.68 828.44zM164.59 203.44L207.89 228.44L207.89 278.44L164.59 303.44L121.28 278.44L121.28 228.44zM121.28 278.44L164.59 303.44L164.59 353.44L121.28 378.44L77.98 353.44L77.98 303.44zM164.59 653.44L207.89 678.44L207.89 728.44L164.59 753.44L121.28 728.44L121.28 678.44zM121.28 728.44L164.59 753.44L164.59 803.44L121.28 828.44L77.98 803.44L77.98 753.44zM164.59 803.44L207.89 828.44L207.89 878.44L164.59 903.44L121.28 878.44L121.28 828.44zM207.89 -21.56L251.19 3.44L251.19 53.44L207.89 78.44L164.59 53.44L164.59 3.44zM207.89 278.44L251.19 303.44L251.19 353.44L207.89 378.44L164.59 353.44L164.59 303.44zM207.89 428.44L251.19 453.44L251.19 503.44L207.89 528.44L164.59 503.44L164.59 453.44zM251.19 803.44L294.5 828.44L294.5 878.44L251.19 903.44L207.89 878.44L207.89 828.44zM337.8 53.44L381.1 78.44L381.1 128.44L337.8 153.44L294.5 128.44L294.5 78.44zM294.5 128.44L337.8 153.44L337.8 203.44L294.5 228.44L251.19 203.44L251.19 153.44zM294.5 428.44L337.8 453.44L337.8 503.44L294.5 528.44L251.19 503.44L251.19 453.44zM294.5 578.44L337.8 603.44L337.8 653.44L294.5 678.44L251.19 653.44L251.19 603.44zM424.4 53.44L467.71 78.44L467.71 128.44L424.4 153.44L381.1 128.44L381.1 78.44zM424.4 203.44L467.71 228.44L467.71 278.44L424.4 303.44L381.1 278.44L381.1 228.44zM381.1 428.44L424.4 453.44L424.4 503.44L381.1 528.44L337.8 503.44L337.8 453.44zM424.4 503.44L467.71 528.44L467.71 578.44L424.4 603.44L381.1 578.44L381.1 528.44zM467.71 -21.56L511.01 3.44L511.01 53.44L467.71 78.44L424.4 53.44L424.4 3.44zM511.01 503.44L554.31 528.44L554.31 578.44L511.01 603.44L467.71 578.44L467.71 528.44zM597.61 53.44L640.91 78.44L640.91 128.44L597.61 153.44L554.31 128.44L554.31 78.44zM554.31 428.44L597.61 453.44L597.61 503.44L554.31 528.44L511.01 503.44L511.01 453.44zM597.61 503.44L640.91 528.44L640.91 578.44L597.61 603.44L554.31 578.44L554.31 528.44zM554.31 728.44L597.61 753.44L597.61 803.44L554.31 828.44L511.01 803.44L511.01 753.44zM684.22 53.44L727.52 78.44L727.52 128.44L684.22 153.44L640.91 128.44L640.91 78.44zM684.22 503.44L727.52 528.44L727.52 578.44L684.22 603.44L640.91 578.44L640.91 528.44zM684.22 653.44L727.52 678.44L727.52 728.44L684.22 753.44L640.91 728.44L640.91 678.44zM727.52 -21.56L770.82 3.44L770.82 53.44L727.52 78.44L684.22 53.44L684.22 3.44zM727.52 128.44L770.82 153.44L770.82 203.44L727.52 228.44L684.22 203.44L684.22 153.44zM770.82 353.44L814.13 378.44L814.13 428.44L770.82 453.44L727.52 428.44L727.52 378.44zM727.52 428.44L770.82 453.44L770.82 503.44L727.52 528.44L684.22 503.44L684.22 453.44zM727.52 728.44L770.82 753.44L770.82 803.44L727.52 828.44L684.22 803.44L684.22 753.44zM770.82 803.44L814.13 828.44L814.13 878.44L770.82 903.44L727.52 878.44L727.52 828.44zM857.43 203.44L900.73 228.44L900.73 278.44L857.43 303.44L814.13 278.44L814.13 228.44zM857.43 503.44L900.73 528.44L900.73 578.44L857.43 603.44L814.13 578.44L814.13 528.44zM814.13 728.44L857.43 753.44L857.43 803.44L814.13 828.44L770.82 803.44L770.82 753.44zM900.73 278.44L944.03 303.44L944.03 353.44L900.73 378.44L857.43 353.44L857.43 303.44zM900.73 578.44L944.03 603.44L944.03 653.44L900.73 678.44L857.43 653.44L857.43 603.44zM944.03 653.44L987.34 678.44L987.34 728.44L944.03 753.44L900.73 728.44L900.73 678.44zM987.34 128.44L1030.64 153.44L1030.64 203.44L987.34 228.44L944.03 203.44L944.03 153.44zM987.34 278.44L1030.64 303.44L1030.64 353.44L987.34 378.44L944.03 353.44L944.03 303.44zM987.34 428.44L1030.64 453.44L1030.64 503.44L987.34 528.44L944.03 503.44L944.03 453.44zM1030.64 503.44L1073.94 528.44L1073.94 578.44L1030.64 603.44L987.34 578.44L987.34 528.44zM1030.64 803.44L1073.94 828.44L1073.94 878.44L1030.64 903.44L987.34 878.44L987.34 828.44zM1073.94 -21.56L1117.24 3.44L1117.24 53.44L1073.94 78.44L1030.64 53.44L1030.64 3.44zM1073.94 128.44L1117.24 153.44L1117.24 203.44L1073.94 228.44L1030.64 203.44L1030.64 153.44zM1073.94 278.44L1117.24 303.44L1117.24 353.44L1073.94 378.44L1030.64 353.44L1030.64 303.44zM1117.24 503.44L1160.55 528.44L1160.55 578.44L1117.24 603.44L1073.94 578.44L1073.94 528.44zM1117.24 803.44L1160.55 828.44L1160.55 878.44L1117.24 903.44L1073.94 878.44L1073.94 828.44zM1160.55 -21.56L1203.85 3.44L1203.85 53.44L1160.55 78.44L1117.24 53.44L1117.24 3.44zM1160.55 128.44L1203.85 153.44L1203.85 203.44L1160.55 228.44L1117.24 203.44L1117.24 153.44zM1160.55 428.44L1203.85 453.44L1203.85 503.44L1160.55 528.44L1117.24 503.44L1117.24 453.44zM1203.85 653.44L1247.15 678.44L1247.15 728.44L1203.85 753.44L1160.55 728.44L1160.55 678.44zM1160.55 728.44L1203.85 753.44L1203.85 803.44L1160.55 828.44L1117.24 803.44L1117.24 753.44zM1290.45 503.44L1333.76 528.44L1333.76 578.44L1290.45 603.44L1247.15 578.44L1247.15 528.44zM1333.76 -21.56L1377.06 3.44L1377.06 53.44L1333.76 78.44L1290.45 53.44L1290.45 3.44zM1377.06 53.44L1420.36 78.44L1420.36 128.44L1377.06 153.44L1333.76 128.44L1333.76 78.44zM1333.76 278.44L1377.06 303.44L1377.06 353.44L1333.76 378.44L1290.45 353.44L1290.45 303.44zM1333.76 428.44L1377.06 453.44L1377.06 503.44L1333.76 528.44L1290.45 503.44L1290.45 453.44zM1377.06 653.44L1420.36 678.44L1420.36 728.44L1377.06 753.44L1333.76 728.44L1333.76 678.44zM1333.76 728.44L1377.06 753.44L1377.06 803.44L1333.76 828.44L1290.45 803.44L1290.45 753.44zM1463.66 353.44L1506.97 378.44L1506.97 428.44L1463.66 453.44L1420.36 428.44L1420.36 378.44z"></path>
            </g>
        </symbol>
        <symbol id="bg-feature-wave-1-bottom" viewBox="0 0 1800.00024 225">
            <path d="M872.87988,185.12844v.00466c-.15039,0-.29785-.00246-.44726-.00246-.1875,0-.37012.00246-.55762.00246v-.00589C646.5332,184.62332,641.28382,34.422,480.7784,4.55523,274.39948-33.84766,119.13181,198.50273,0,148.95924V225H1800.00024V211.25866c-187.77179,18.1064-266.98154-193.4315-556.2876-182.48035C1042.78378,36.3841,1032.62557,176.60043,872.87988,185.12844Z"/>
        </symbol>
        <symbol id="bg-feature-wave-1-middle" viewBox="0 0 1800.00024 287">
            <path d="M1224.83569,34.1214C1023.907,41.72717,1032.62549,145.624,872.87988,154.152v.00464c-.15039,0-.29785-.00244-.44726-.00244-.1875,0-.37012.00244-.55762.00244v-.00586C646.5332,153.64691,658.113,47.06366,497.60767,17.197,291.22876-21.206,119.13184,167.52618.00024,117.98291v92.97638c119.1316,49.5434,274.39942-182.80695,480.77832-144.40405C641.28394,96.422,646.5332,246.62335,871.875,247.12726v.00586c.1875,0,.37012-.00244.55762-.00244.14941,0,.29687.00244.44726.00244v-.00464c159.74585-8.528,169.90406-148.74439,370.83277-156.35016,289.306-10.95117,368.51587,200.58661,556.28759,182.48035V180.28229C1612.22852,198.38855,1514.14185,23.17023,1224.83569,34.1214Z"/>
        </symbol>
        <symbol id="bg-feature-wave-1-top" viewBox="0 0 1800 287">
            <path d="M1224.83557,26.23383c-200.92871,5.8476-192.2102,85.72745-351.95581,92.28411v.00356c-.15039,0-.29785-.00187-.44726-.00187-.1875,0-.37012.00187-.55762.00187v-.0045c-225.3418-.38742-213.762-82.33267-374.26734-105.29532C291.22864-16.304,119.13171,128.80049.00012,90.70974v71.48377C119.13171,200.28435,274.39954,21.64459,480.77844,51.17019c160.50537,22.9627,165.75464,138.4432,391.09644,138.83063v.0045c.1875,0,.37012-.00188.55762-.00188.14941,0,.29687.00188.44726.00188v-.00357c159.74585-6.55666,169.904-114.36032,370.83276-120.20793,289.306-8.41968,368.51587,154.2186,556.2876,140.29782V138.60787C1612.22839,152.52865,1514.14172,17.81415,1224.83557,26.23383Z"/>
        </symbol>
        <symbol id="bg-wave-double-bottom" viewBox="0 0 1440 400">
            <path d="M 0,400 C 0,400 0,133 0,133 C 54.100544555764074,129.03079647889186 108.20108911152815,125.06159295778372 152,129 C 195.79891088847185,132.93840704221628 229.29618810965138,144.78442464775702 281,138 C 332.7038118903486,131.21557535224298 402.61415844986647,105.80070845118824 456,110 C 509.38584155013353,114.19929154881176 546.2471780908827,148.01274154749 588,142 C 629.7528219091173,135.98725845251 676.3971291866028,90.14832535885168 723,86 C 769.6028708133972,81.85167464114832 816.1643051627059,119.3939570171033 867,134 C 917.8356948372941,148.6060429828967 972.9456501625737,140.2758465727352 1013,131 C 1053.0543498374263,121.72415342726481 1078.0530941869993,111.5026566919559 1129,112 C 1179.9469058130007,112.4973433080441 1256.8419730894288,123.71352665944116 1313,129 C 1369.1580269105712,134.28647334055884 1404.5790134552856,133.6432366702794 1440,133 C 1440,133 1440,400 1440,400 Z" stroke="none" stroke-width="0" fill="var(--choco-theme-elevation-3)" transform="rotate(-180 720 200)"></path>
            <path d="M 0,400 C 0,400 0,266 0,266 C 39.297747759655294,245.8097491342621 78.59549551931059,225.61949826852418 123,232 C 167.4045044806894,238.38050173147582 216.915765682413,271.33175606016545 270,269 C 323.084234317587,266.66824393983455 379.7414417510376,229.05347749081392 425,230 C 470.2585582489624,230.94652250918608 504.1184673134368,270.4543339765788 553,270 C 601.8815326865632,269.5456660234212 665.7846889952153,229.12918660287085 724,240 C 782.2153110047847,250.87081339712915 834.7427767057019,313.02891961193797 879,311 C 923.2572232942981,308.97108038806203 959.2442041819768,242.75513494937744 1007,236 C 1054.7557958180232,229.24486505062256 1114.2804065663909,281.95054059055224 1168,290 C 1221.7195934336091,298.04945940944776 1269.6341695524598,261.44270268841365 1314,250 C 1358.3658304475402,238.55729731158635 1399.1829152237701,252.27864865579318 1440,266 C 1440,266 1440,400 1440,400 Z" stroke="none" stroke-width="0" fill="var(--choco-theme-eleveation-1)" transform="rotate(-180 720 200)"></path>
        </symbol>
        <symbol id="bg-wave-single-bottom-md" viewBox="0 0 1440 500">
            <path d="M 0,500 C 0,500 0,250 0,250 C 51.43105818287556,220.06808268788495 102.86211636575112,190.1361653757699 152,192 C 201.13788363424888,193.8638346242301 247.98259271987098,227.52342118480533 298,255 C 348.017407280129,282.47657881519467 401.2075127547649,303.7701498850089 453,275 C 504.7924872452351,246.22985011499114 555.1873562610697,167.39597927515925 596,164 C 636.8126437389303,160.60402072484075 668.0430622009569,232.64593301435406 708,257 C 747.9569377990431,281.35406698564594 796.6403949351028,258.02028866742444 854,232 C 911.3596050648972,205.97971133257556 977.3953580586322,177.2729123159481 1030,168 C 1082.6046419413678,158.7270876840519 1121.7781728303682,168.8880620687832 1169,196 C 1216.2218271696318,223.1119379312168 1271.4919506198946,267.17483940891907 1318,279 C 1364.5080493801054,290.82516059108093 1402.2540246900526,270.41258029554047 1440,250 C 1440,250 1440,500 1440,500 Z" stroke="none" stroke-width="0" fill="var(--choco-theme-eleveation-1)" transform="rotate(-180 720 250)"></path>
        </symbol>
        <symbol id="bg-wave-single-bottom-sm" viewBox="0 0 1440 400">
            <path d="M 0,400 C 0,400 0,200 0,200 C 36.74904174046367,168.73047133151815 73.49808348092733,137.4609426630363 129,130 C 184.50191651907267,122.5390573369637 258.75670781675433,138.88670067937295 307,166 C 355.24329218324567,193.11329932062705 377.47508525205535,230.99225461947185 425,229 C 472.52491474794465,227.00774538052815 545.3429511750244,185.14428084273973 592,183 C 638.6570488249756,180.85571915726027 659.153110047847,218.4306220095694 702,243 C 744.846889952153,267.5693779904306 810.0446086335879,279.13323111898274 867,258 C 923.9553913664121,236.86676888101724 972.6684554178012,183.03645351449947 1021,162 C 1069.3315445821988,140.96354648550053 1117.2815696952073,152.72095482301935 1168,175 C 1218.7184303047927,197.27904517698065 1272.2052658013693,230.07972719342305 1318,236 C 1363.7947341986307,241.92027280657695 1401.8973670993155,220.96013640328846 1440,200 C 1440,200 1440,400 1440,400 Z" stroke="none" stroke-width="0" fill="var(--choco-theme-eleveation-1)" transform="rotate(-180 720 200)"></path>
        </symbol>
        <symbol id="bg-blob-left-1" viewBox="0 0 1075 882" preserveAspectRatio="none">
            <path d="M812.76222,72.08832c74.247,43.68354,135.43949,97.147,183.5776,161.69428,47.32222,63.89533,81.59,138.87453,76.69466,214.50572-4.07951,74.97921-47.32222,150.6104-102.80348,236.67349-55.48123,86.71507-123.201,183.862-214.58182,194.94594C664.26834,890.99161,550.04227,815.36042,453.766,759.941,357.48977,705.17358,89.07468,883.009-8.83337,838.02142c-98.724-45.63952-36.10037-401.52394-72-479.11111-35.89963-76.93518-44.59-270.50511,37-332.44445,82.40593-61.28736,241,39.11111,359.71221,61.92229,97.04828,18.64834,172.9709-80.19514,254.561-86.71507C652.02983-4.19487,738.51529,29.05679,812.76222,72.08832Z" />
        </symbol>
        <symbol id="bg-blob-left-2" viewBox="0 0 1075 882" preserveAspectRatio="none">
            <path d="M767.0889,14.439c34.11754,36.58557,12.13067,150.73256,37.15019,226.83054,25.01955,76.8297,97.80362,114.87869,167.555,192.44011s137.22834,193.90352,84.15662,223.9037C1003.63718,687.61354,830.0168,630.54,725.38969,638.58887c-104.62713,8.78054-140.261,81.22-215.31959,147.074-53.95286,47.33653-128.276,91.27045-181.0134,95.92975a63.64018,63.64018,0,0,1-57.814-27.63727C183.72959,726.7338,1.07176,699.05427-16.54292,606.26253c-18.196-95.8542,47.90426-124.2698-18.05632-206.9532S-28.987,156.39106,14.22855,102.9761C58.20223,50.2929,208.31942,62.732,315.22105,66.39053s170.58769-.7317,247.92078-23.41474C641.23309,19.561,732.21319-22.14654,767.0889,14.439Z"/>
        </symbol>
        <symbol id="bg-blob-right-1" viewBox="0 0 1075 882" preserveAspectRatio="none">
            <path d="M838.05709,66.44065c108.13334,39.06277,245.10306,66.68938,244.308,136.70756-.79514,70.0182,47.70589,272.652,0,362.57014,12.74208,97.30316,19.42513,159.22626-11.58371,178.38913s-337.6889-72.54989-397.32126-31.276c-60.42746,40.53684-93.80989,118.65-139.92558,154.76465s-115.28923,0-138.34708-60.43675c-23.853-60.43676-3.18039-145.19562-69.96863-199.7361-66.78826-55.27751-221.83239-81.07368-287.8255-141.51044C-27.80479,405.47608-3.95184,310.39876,79.53346,281.65445s225.80788,9.58143,315.654-39.79982c89.051-49.38125,124.83041-185.73246,186.053-227.00633C643.25805-26.42557,729.92374,27.37785,838.05709,66.44065Z"/>
        </symbol>
         <symbol id="bg-blob-1" viewBox="0 0 600 600" preserveAspectRatio="none">
            <path d="M447.37384,34.236C497.68114,63.97612,536.695,106.21577,565.442,151.90356c28.747,45.25678,47.22725,94.82372,24.12695,132.7532-23.61362,37.92949-89.32112,64.22152-110.8814,119.8227-22.07361,55.60117,0,140.5115-27.72036,174.56183-27.207,33.61933-103.69464,16.80966-179.66894,16.37865-76.48763-.431-151.94859,15.5166-188.39571-14.22357C46.96876,551.45621,50.04879,476.45929,40.29533,421.28912,30.02853,366.119,6.4149,330.77557,1.2815,293.2771c-5.64673-37.92948,7.18677-78.01406,42.09388-96.9788,34.9071-19.39576,91.88783-17.24068,133.46836-51.291,41.58052-34.48135,67.76085-105.59914,112.42142-131.89116C333.41239-13.60694,396.55319,4.06478,447.37384,34.236Z"/>
        </symbol>
        <symbol id="bg-blob-2" viewBox="0 0 600 600" preserveAspectRatio="none">
            <path d="M438.836,95.29936c55.00041,21.32815,140.86436-1.74108,153.13064,22.19869s-48.66944,94.018-51.83492,162.35512c-3.16549,67.90188,51.83492,134.06268,58.95726,195.43553,7.51805,61.37284-32.44627,117.95773-84.67688,124.0515-52.23061,6.529-116.3318-37.43308-178.45456-42.221-61.72708-4.78795-121.08,29.163-159.46162,14.36385-37.98589-15.23439-55.3961-79.65412-90.2165-136.239C51.459,379.09437-1.16731,330.34431.01974,282.46478S56.20722,187.141,103.68959,155.3664c47.87805-32.20987,88.63374-48.75006,125.82827-81.3952C266.31669,41.32607,299.95-6.98873,329.23083.84611,358.51162,9.11622,383.43986,73.9712,438.836,95.29936Z"/>
        </symbol>
        <mask id="mask-1440x560">
            <rect width="1440" height="560" fill="#ffffff"></rect>
        </mask>
        <mask id="mask-1440x800">
            <rect width="1440" height="560" fill="#ffffff"></rect>
        </mask>
    </defs>
</svg>
